<svg width="41" height="41" viewBox="0 0 41 41" fill="none" xmlns="http://www.w3.org/2000/svg">
<path d="M20.5 0C15.0631 0 9.84881 2.15981 6.00431 6.00431C2.15982 9.84881 0 15.0631 0 20.5C0 25.9369 2.15982 31.1512 6.00431 34.9957C9.84881 38.8402 15.0631 41 20.5 41C25.9369 41 31.1512 38.8402 34.9957 34.9957C38.8402 31.1512 41 25.9369 41 20.5C41 15.0631 38.8402 9.84881 34.9957 6.00431C31.1512 2.15981 25.9369 0 20.5 0ZM29.4688 19.2188C29.8086 19.2188 30.1345 19.3537 30.3747 19.594C30.615 19.8343 30.75 20.1602 30.75 20.5C30.75 20.8398 30.615 21.1657 30.3747 21.406C30.1345 21.6463 29.8086 21.7813 29.4688 21.7813L14.6242 21.7812L20.1259 27.2804C20.3665 27.521 20.5016 27.8473 20.5016 28.1875C20.5016 28.5277 20.3665 28.854 20.1259 29.0946C19.8853 29.3352 19.559 29.4704 19.2188 29.4704C18.8785 29.4704 18.5522 29.3352 18.3116 29.0946L10.6241 21.4071C10.5048 21.2881 10.4101 21.1467 10.3455 20.9911C10.281 20.8354 10.2477 20.6685 10.2477 20.5C10.2477 20.3315 10.281 20.1646 10.3455 20.0089C10.4101 19.8533 10.5048 19.7119 10.6241 19.5929L18.3116 11.9054C18.5522 11.6648 18.8785 11.5296 19.2188 11.5296C19.559 11.5296 19.8853 11.6648 20.1259 11.9054C20.3665 12.146 20.5016 12.4723 20.5016 12.8125C20.5016 13.1527 20.3665 13.479 20.1259 13.7196L14.6242 19.2188L29.4688 19.2188Z" fill="#005669" fill-opacity="0.58"/>
</svg>
